<?xml version="1.0" encoding="UTF-8"?>
<svg width="36px" height="33px" viewBox="0 0 36 33" version="1.1" xmlns="http://www.w3.org/2000/svg" xmlns:xlink="http://www.w3.org/1999/xlink">
    <title>E8A6DE6D-122D-4665-8F92-41815C3941C1</title>
    <g id="10-Sell-car-Revamp" stroke="none" stroke-width="1" fill="none" fill-rule="evenodd">
        <g id="10.11.0-Sell-form---main---expanded-and-stats" transform="translate(-258.000000, -5272.000000)" fill="#FFFFFF" fill-rule="nonzero">
            <g id="Group-8-Copy-8" transform="translate(15.000000, 5118.000000)">
                <g id="Group-4-Copy-74" transform="translate(0.000000, 36.000000)">
                    <g id="noun-manual-transmission-363324" transform="translate(243.000000, 118.000000)">
                        <path d="M4.71423925,0 C2.11065122,0 7.65311004e-05,2.08350275 7.65311004e-05,4.65369505 C7.65311004e-05,7.22411401 2.11065122,9.30769231 4.71423925,9.30769231 C7.31805688,9.30769231 9.42870809,7.22418956 9.42870809,4.65369505 C9.42870809,2.08350275 7.31813341,0 4.71423925,0 Z M18.0000383,0 C15.3964502,0 13.2855694,2.08350275 13.2855694,4.65369505 C13.2855694,7.22411401 15.3964502,9.30769231 18.0000383,9.30769231 C20.6036263,9.30769231 22.7145071,7.22418956 22.7145071,4.65369505 C22.7145071,2.08350275 20.6036263,0 18.0000383,0 Z M31.2858373,0 C28.6820197,0 26.5713684,2.08350275 26.5713684,4.65369505 C26.5713684,7.22411401 28.6819431,9.30769231 31.2858373,9.30769231 C33.8894253,9.30769231 36,7.22418956 36,4.65369505 C36,2.08350275 33.8894253,0 31.2858373,0 Z M3.85686133,10.9471154 L3.85686133,22.0528846 C4.137807,22.0159953 4.42329862,22.0000589 4.71416272,22.0000589 C5.00504212,22.0000589 5.29083987,22.0159953 5.57154063,22.0528846 L5.57154063,17.3460783 L17.143043,17.3460783 L17.143043,22.0528846 C17.4237591,22.0159953 17.7092507,22.0000589 18.0001148,22.0000589 C18.2909789,22.0000589 18.5764858,22.0159953 18.8571866,22.0528846 L18.8571866,17.3460783 L31.2858373,17.3460783 C31.8018253,17.3460783 32.1429091,16.9966621 32.1429091,16.5 L32.1429091,10.9471154 C31.862193,10.9840047 31.5767014,10.9999411 31.2858373,10.9999411 C30.9949579,10.9999411 30.7091601,10.9840047 30.4284594,10.9471154 L30.4284594,15.6539217 L18.856957,15.6539217 L18.856957,10.9471154 C18.5762409,10.9840047 18.2907493,10.9999411 17.9998852,10.9999411 C17.7090211,10.9999411 17.4235142,10.9840047 17.1428134,10.9471154 L17.1428134,15.6539217 L5.57131104,15.6539217 L5.57131104,10.9471154 C5.29059497,10.9840047 5.00480488,10.9999411 4.71393312,10.9999411 C4.42305372,10.9999411 4.1375621,10.9840047 3.85686133,10.9471154 L3.85686133,10.9471154 Z M4.71416272,23.6923077 C2.11057468,23.6923077 0,25.7758104 0,28.3463049 C0,30.9164973 2.11057468,33 4.71416272,33 C7.31798034,33 9.42863156,30.9164973 9.42863156,28.3463049 C9.42863156,25.775886 7.31805688,23.6923077 4.71416272,23.6923077 Z M17.9999617,23.6923077 C15.3963737,23.6923077 13.2854929,25.7758104 13.2854929,28.3463049 C13.2854929,30.9164973 15.3963737,33 17.9999617,33 C20.6035498,33 22.7144306,30.9164973 22.7144306,28.3463049 C22.7144306,25.775886 20.6035498,23.6923077 17.9999617,23.6923077 Z" id="Shape"></path>
                    </g>
                </g>
            </g>
        </g>
    </g>
</svg>