<?xml version="1.0" encoding="UTF-8"?>
<svg width="108px" height="38px" viewBox="0 0 108 38" version="1.1" xmlns="http://www.w3.org/2000/svg" xmlns:xlink="http://www.w3.org/1999/xlink">
    <title>navbar logo</title>
    <g id="Symbols" stroke="none" stroke-width="1" fill="none" fill-rule="evenodd">
        <g id="Header-/-Mobile" transform="translate(-256.000000, -12.000000)" fill-rule="nonzero">
            <g id="navbar-logo" transform="translate(256.000000, 12.000000)">
                <g id="Group" transform="translate(0.000000, 13.115343)">
                    <path d="M4.67632907,11.9373186 C3.47241738,11.9818183 2.29612067,11.5690248 1.38265521,10.7814817 C-0.46088507,8.80266974 -0.46088507,5.73032839 1.38265521,3.75151642 C2.29612067,2.96397334 3.47241738,2.55117984 4.67632907,2.59567949 C5.84537698,2.55649703 6.97760443,3.00873105 7.79955531,3.84315778 L6.5059649,5.20539415 C6.00834785,4.7743419 5.37425775,4.53442931 4.71667657,4.52840395 C3.99355728,4.51215054 3.29626391,4.7981358 2.79181002,5.31786143 C2.28735613,5.83758707 2.02117986,6.54423932 2.05703493,7.26856306 C2.00800549,7.98779424 2.2664605,8.69397747 2.76783471,9.21069948 C3.26920892,9.72742148 3.96615355,10.0058841 4.68456325,9.97652386 C5.40588299,9.99968097 6.10825821,9.74265471 6.64512262,9.25907937 L8.01199727,10.6048038 C7.13435926,11.4963438 5.92498229,11.9794592 4.67632907,11.9373186 L4.67632907,11.9373186 Z" id="Path" fill="#003FE5"></path>
                    <path d="M48.0334284,11.9373186 C46.8295167,11.9818183 45.65322,11.5690248 44.7397545,10.7814817 C42.8962142,8.80266974 42.8962142,5.73032839 44.7397545,3.75151642 C45.65322,2.96397334 46.8295167,2.55117984 48.0334284,2.59567949 C49.2024763,2.55649703 50.3347037,3.00873105 51.1566546,3.84315778 L49.8712984,5.20539415 C49.3736813,4.7743419 48.7395912,4.53442931 48.08201,4.52840395 C47.3588908,4.51215054 46.6615974,4.7981358 46.1571435,5.31786143 C45.6526896,5.83758707 45.3865133,6.54423932 45.4223684,7.26856306 C45.3733587,7.98764501 45.6317051,8.69368792 46.1328941,9.21038097 C46.6340831,9.72707402 47.3308038,10.0056428 48.0490733,9.97652386 C48.770393,9.99968097 49.4727683,9.74265471 50.0096327,9.25907937 L51.3756839,10.6048038 C50.494382,11.494894 49.283694,11.9775799 48.0334284,11.9373186 L48.0334284,11.9373186 Z" id="Path" fill="#003FE5"></path>
                    <path d="M40.2389492,2.83592845 L40.2389492,4.27907342 L40.0849699,4.01818451 C39.4627481,3.10333384 38.4153234,2.57324629 37.3116965,2.61466824 L37.271349,2.61466824 C36.0310054,2.53134756 34.8157765,2.99262172 33.9414298,3.87863234 C33.0670831,4.76464296 32.619944,5.98791301 32.7161981,7.23058556 C32.7161981,10.1259571 34.4322022,11.9199811 37.206299,11.9199811 L37.2548806,11.9199811 C37.8107149,11.9055143 38.3570443,11.7720891 38.857253,11.5286477 C39.3817608,11.2952382 39.8139539,10.8935592 40.0857933,10.386846 L40.240596,10.4190443 L40.240596,11.6508362 L42.2744396,11.6508362 L42.2744396,2.83592845 L40.2389492,2.83592845 Z M37.5060233,10.0533045 C36.3654913,10.094027 35.3144708,9.43653718 34.8495768,8.39150394 C34.3846829,7.3464707 34.5989853,6.12310526 35.3912246,5.29945695 C36.1834639,4.47580865 37.3950371,4.2167684 38.4534668,4.64473466 C39.5118965,5.07270092 40.2052895,6.10199666 40.2060124,7.24627192 C40.2476755,7.9853161 39.9800341,8.70829599 39.4675401,9.24110832 C38.955046,9.77392066 38.244142,10.0682814 37.5060233,10.0533045 L37.5060233,10.0533045 Z" id="Shape" fill="#003FE5"></path>
                    <path d="M12.8849878,2.65677373 C11.6360427,2.62168742 10.4295432,3.11275081 9.55837715,4.01075413 C8.74562406,4.8925243 8.30528278,6.05577025 8.3298368,7.25617909 C8.32983666,8.89658636 9.20267331,10.4123852 10.6195576,11.2325889 C12.0364419,12.0527926 13.7821153,12.0527926 15.1989996,11.2325889 C16.6158839,10.4123852 17.4887205,8.89658636 17.4887204,7.25617909 C17.5285249,6.02164437 17.0557233,4.82587999 16.1830655,3.95404243 C15.3104077,3.08220488 14.1161131,2.61244004 12.8849878,2.65677373 Z M12.9014561,9.97982625 C12.1972825,9.98443834 11.5236757,9.69174014 11.0455443,9.1733883 C10.5674129,8.65503646 10.3288949,7.95888206 10.388383,7.2553535 C10.3337297,6.55146887 10.5734059,5.85648691 11.0500306,5.33679354 C11.5266553,4.81710017 12.1973183,4.51948289 12.9014561,4.51519439 C13.5982866,4.54109334 14.2558785,4.84520805 14.7278722,5.35985195 C15.1998659,5.87449586 15.4470933,6.55696166 15.4145293,7.2553535 C15.4740311,7.95902618 15.2354045,8.6553152 14.7570906,9.17369501 C14.2787766,9.69207482 13.6049492,9.98467149 12.9006327,9.97982625 L12.9014561,9.97982625 Z" id="Shape" fill="#003FE5"></path>
                    <path d="M56.354072,11.7738503 C54.6948837,11.7490823 52.7911403,10.9011934 52.7911403,8.57713558 L52.7911403,3.69372457 L51.8310343,3.69372457 L51.8310343,1.94015484 L52.7911403,1.94015484 L52.7911403,1.7761844e-15 L54.8406288,1.7761844e-15 L54.8406288,1.94098044 L56.6134488,1.94098044 L56.6134488,3.69455017 L54.8159263,3.69455017 L54.8159263,8.57796118 C54.8396027,8.96233182 55.0151739,9.32136763 55.3037396,9.5755188 C55.5923053,9.82966998 55.9700391,9.95795183 56.3532485,9.93194158 L56.3532485,11.7746759 L56.354072,11.7738503 Z" id="Path" fill="#003FE5"></path>
                    <path d="M32.141452,11.7738503 C30.4822638,11.7490823 28.5785203,10.9011934 28.5785203,8.57713558 L28.5785203,3.69372457 L27.6192378,3.69372457 L27.6192378,1.94015484 L28.5793437,1.94015484 L28.5793437,1.7761844e-15 L30.6288323,1.7761844e-15 L30.6288323,1.94098044 L32.4016522,1.94098044 L32.4016522,3.69455017 L30.6041297,3.69455017 L30.6041297,8.57796118 C30.6278061,8.96233182 30.8033774,9.32136763 31.0919431,9.5755188 C31.3805087,9.82966998 31.7582426,9.95795183 32.141452,9.93194158 L32.141452,11.7738503 Z" id="Path" fill="#003FE5"></path>
                    <path d="M25.1440419,11.6764297 L25.1440419,7.06051242 C25.2184285,6.42222767 25.0144588,5.78280804 24.5844536,5.30627301 C24.1544485,4.82973797 23.5402482,4.56245521 22.8994031,4.57298623 C22.2574978,4.54933204 21.6352701,4.79747131 21.184922,5.25670715 C20.7345739,5.71594298 20.4976396,6.34392158 20.532075,6.98703421 L20.532075,11.6764297 L18.4990548,11.6764297 L18.4990548,2.84253324 L20.4596142,2.84253324 L20.4596142,3.99259098 L20.5979485,3.85389055 C21.3550014,3.07919646 22.4050211,2.6640209 23.4856771,2.71208878 C25.7089069,2.71208878 27.202588,4.44584417 27.202588,7.03409329 L27.202588,11.6747785 L25.1440419,11.6764297 Z" id="Path" fill="#003FE5"></path>
                    <path d="M84.8163546,11.8555845 C83.3124341,11.9614535 81.8377948,11.4011162 80.7816041,10.3224493 L81.7738234,8.87930438 C82.639032,9.61410793 83.723816,10.038828 84.8567021,10.0863284 L84.9052838,10.0863284 C85.7188213,10.0863284 86.5562378,9.65454071 86.5562378,8.93049144 C86.5562378,8.16433668 85.8151612,7.9678444 84.7018995,7.90262217 C83.343259,7.79694566 81.0665069,7.30736616 81.0665069,5.19466138 C81.0665069,3.04150231 83.3926641,2.47018863 84.7677729,2.47018863 C85.9936943,2.38878101 87.203486,2.7861104 88.1437886,3.57896648 L87.0050009,4.91643492 C86.3962185,4.38568426 85.6065061,4.11120059 84.8007097,4.15028016 C83.7105036,4.15028016 83.0847056,4.50115922 83.0847056,5.12035758 C83.0847056,5.76432386 83.6545112,6.11107494 84.8254122,6.18868113 C86.6797506,6.31086961 88.5834941,6.74348286 88.5834941,8.98580649 C88.5818473,10.3125422 87.5978622,11.8555845 84.8163546,11.8555845 Z" id="Path" fill="#003FE5"></path>
                    <path d="M61.6050115,11.8151302 C60.4011122,11.8595478 59.2248445,11.4467645 58.3113376,10.6592932 C56.4677974,8.68048127 56.4677974,5.60813992 58.3113376,3.62932794 C59.2248031,2.84178486 60.4010998,2.42899136 61.6050115,2.47349102 C62.7740594,2.43430855 63.9062869,2.88654257 64.7282377,3.7209693 L63.4346473,5.08320568 C62.9370675,4.65209075 62.3029536,4.41216916 61.645359,4.40621548 C60.9222397,4.38996207 60.2249464,4.67594733 59.7204925,5.19567296 C59.2160386,5.71539859 58.9498623,6.42205085 58.9857174,7.14637459 C58.9347936,7.86601478 59.1926528,8.57323181 59.6944811,9.09026419 C60.1963095,9.60729656 60.8943856,9.88497709 61.6132457,9.85350978 C62.3345654,9.8766669 63.0369406,9.61964064 63.5738051,9.13606529 L64.9406797,10.4817897 C64.0631829,11.3736325 62.8537878,11.8570545 61.6050115,11.8151302 L61.6050115,11.8151302 Z" id="Path" fill="#003FE5"></path>
                    <path d="M72.5301277,2.71373998 L72.5301277,4.15688494 L72.375325,3.89599603 C71.7531032,2.98114536 70.7056785,2.45105782 69.6020516,2.49247977 L69.5617041,2.49247977 C68.3213605,2.40915908 67.1061316,2.87043325 66.2317849,3.75644386 C65.3574382,4.64245448 64.9102991,5.86572453 65.0065532,7.10839709 C65.0065532,10.0037686 66.7225573,11.7977926 69.4966541,11.7977926 L69.5452358,11.7977926 C70.6914739,11.8188176 71.7652184,11.2373106 72.3761485,10.2646575 L72.5309511,10.2976814 L72.5309511,11.5294733 L74.5639713,11.5294733 L74.5639713,2.71373998 L72.5301277,2.71373998 Z M71.8228112,9.05020312 C71.3138053,9.63393248 70.5700828,9.95736834 69.7972018,9.93111598 C69.0522111,9.95542738 68.3314421,9.66410064 67.8115527,9.12853895 C67.2916633,8.59297725 67.0207088,7.86268455 67.0650993,7.11665307 C67.0366171,6.35075285 67.3250696,5.60709737 67.8621684,5.06174013 C68.385005,4.56863273 69.0804294,4.30170864 69.7980252,4.31870211 C70.5368197,4.30146414 71.2490741,4.59511731 71.7620712,5.12845264 C72.2750683,5.66178796 72.5419555,6.38609525 72.4980144,7.12573464 C72.5076653,7.82720584 72.2683566,8.50928484 71.8228112,9.05020312 L71.8228112,9.05020312 Z" id="Shape" fill="#003FE5"></path>
                    <path d="M75.7422831,11.5377293 L75.7422831,2.72199596 L77.8008293,2.72199596 L77.8008293,3.96039266 L77.955632,3.71271332 C78.4398085,2.88088621 79.3573944,2.4017722 80.3147259,2.4809214 L80.3147259,4.52014797 C79.6620865,4.47182946 79.0189398,4.69874791 78.5403019,5.1462096 C78.0616641,5.5936713 77.7909534,6.22108619 77.7934185,6.8772297 L77.7934185,11.5336013 L75.7422831,11.5377293 Z" id="Path" fill="#003FE5"></path>
                    <path d="M60.8400558,23.977024 C58.2633326,23.9428492 56.1923765,21.8387735 56.1923765,19.2550048 C56.1923765,16.671236 58.2633326,14.5671604 60.8400558,14.5329981 C62.0527902,14.4884888 63.2258988,14.9698038 64.059622,15.8539546 L64.059622,15.8539546 L62.6779258,17.3235187 C62.1847966,16.8728164 61.5435099,16.6197958 60.8762862,16.612679 C60.1776982,16.5907387 59.5021713,16.8646767 59.0152125,17.3673769 C58.5282537,17.8700772 58.2748555,18.5550928 58.3171016,19.254592 C58.2673364,19.9492904 58.5158785,20.6322245 59.00018,21.1315285 C59.4844815,21.6308324 60.158425,21.89896 60.852407,21.8684346 C61.5755872,21.9013586 62.2800427,21.6323413 62.7981449,21.1253966 L64.276181,22.5710183 C63.3816434,23.5070001 62.1322708,24.0173175 60.8400558,23.9745346 L60.8400558,23.977024 Z" id="Path" fill="#FF9A0D"></path>
                    <path d="M69.0643594,23.8804165 C67.4075428,23.8846934 65.8743054,23.0024049 65.0422029,21.5659004 C64.2101005,20.129396 64.2055491,18.3569148 65.0302634,16.9161335 C65.8549776,15.4753522 67.3836636,14.5851597 69.0404802,14.5808828 C70.2859093,14.5354591 71.4943559,15.0099267 72.3778498,15.891221 C73.2613437,16.7725153 73.740759,17.9817075 73.7018522,19.2306496 C73.7584299,20.480373 73.288033,21.6963065 72.4057703,22.5809043 C71.5235076,23.465502 70.3107838,23.9371439 69.0643594,23.8804165 L69.0643594,23.8804165 Z M68.9918986,16.6052486 C68.3175996,16.6005933 67.6772829,16.9015741 67.2495451,17.4242416 C66.8357289,17.9427578 66.6186629,18.5915837 66.6369217,19.2554176 C66.5655746,20.1700504 67.0118508,21.0475318 67.7920976,21.5267589 C68.5723445,22.0059859 69.5547275,22.0059859 70.3349743,21.5267589 C71.1152212,21.0475318 71.5614973,20.1700504 71.4901502,19.2554176 C71.5243172,18.580739 71.2864066,17.9206341 70.8299784,17.4237098 C70.3735502,16.9267854 69.7369654,16.6348063 69.063536,16.6135046 C69.040618,16.6064625 69.0166699,16.6033913 68.992722,16.604423 L68.9918986,16.6052486 Z" id="Shape" fill="#FF9A0D"></path>
                    <path d="M86.3956712,23.6996105 L86.3956712,18.8814218 C86.3956712,16.9181502 85.2181828,16.7134019 84.7134273,16.7134019 C84.158174,16.7287285 83.6343093,16.9749778 83.2674073,17.3931222 C82.9005052,17.8112666 82.7236436,18.3636086 82.7792173,18.9177481 L82.7792173,23.6996105 L80.58069,23.6996105 L80.58069,18.9177481 C80.58069,17.7974118 80.015825,16.6770756 78.7543479,16.6770756 C78.2025845,16.7114689 77.6886597,16.9699409 77.331244,17.3928076 C76.9738283,17.8156744 76.8038235,18.3663754 76.8604854,18.9177481 L76.8604854,23.6996105 L74.657841,23.6996105 L74.657841,14.7501304 L76.8810709,14.7501304 L76.8687196,15.7862556 L77.0852787,15.5212387 C77.6152733,14.9129806 78.3955473,14.5839594 79.1998173,14.6295931 C80.2624835,14.5641843 81.262686,15.1367781 81.7466506,16.0875988 L81.8289924,16.2684047 L81.9492115,16.1032852 C82.5759089,15.1436267 83.6659259,14.5924541 84.8081204,14.6576634 C87.2470859,14.6576634 88.5802004,16.1635538 88.5802004,18.8979337 L88.5802004,23.7111689 L86.3940244,23.7111689 L86.3956712,23.6996105 Z" id="Path" fill="#FF9A0D"></path>
                    <rect id="Rectangle" fill="#FF9A0D" x="53.1073329" y="21.7123966" width="2.24628557" height="2.25223081"></rect>
                </g>
                <g id="Group" transform="translate(71.050498, 0.000000)">
                    <g transform="translate(17.974751, 19.000000) rotate(8.000000) translate(-17.974751, -19.000000) translate(2.198752, 2.038300)" fill="#003FE5" id="Path">
                        <g opacity="0.15" transform="translate(19.701934, 23.616638)">
                            <path d="M4.24307535,0 C4.1072113,0.1502588 3.9598194,0.288133633 3.82395535,0.426008467 C3.68809131,0.5638833 3.52752471,0.700932535 3.36778152,0.825597803 C3.20803834,0.950263072 3.04747174,1.07327714 2.87373044,1.2012448 C2.70691096,1.32279112 2.5340451,1.4357682 2.35580023,1.5397399 C2.18288235,1.63963724 1.98608534,1.75274414 1.80081618,1.85264147 C1.61554703,1.95253881 1.41875002,2.04087777 1.22442326,2.12839114 C1.0300965,2.2159045 0.830005813,2.2935107 0.620034104,2.3669889 C0.410062396,2.44046711 0.208324872,2.50568933 -9.14178139e-17,2.56843477 L1.2351277,10.306763 C1.65507112,10.1812721 2.07419111,10.0310133 2.4702554,9.87992891 C2.87757306,9.71480935 3.27226498,9.53923222 3.65433115,9.35319752 C4.03639732,9.16496122 4.40693563,8.95195698 4.76429924,8.73895275 C5.12166285,8.52594852 5.46749861,8.28817635 5.81251095,8.03719462 C6.14187833,7.79942245 6.46630521,7.53605675 6.77426371,7.27351665 C7.08070915,7.014396 7.37290342,6.73879147 7.64955754,6.44791884 C7.92046222,6.15978521 8.19219031,5.87000038 8.45074371,5.57195958 C8.70929711,5.27391877 8.94479479,4.95854041 9.16547094,4.64563884 L4.24307535,0 Z"></path>
                        </g>
                        <g opacity="0.25" transform="translate(25.609138, 16.750141)">
                            <path d="M1.105851,0 C1.105851,0.188236299 1.09514656,0.377298196 1.0836187,0.565534495 C1.07209084,0.753770795 1.04985854,0.942832692 1.02762624,1.13106899 C1.00539395,1.31930529 0.971633789,1.50836719 0.937873632,1.69660349 C0.907265387,1.88734708 0.865751576,2.07616975 0.813537444,2.26213798 C0.768249428,2.45037428 0.712256972,2.62622661 0.666968957,2.81528851 C0.610153083,2.99114084 0.542632769,3.18020274 0.475112454,3.35605507 C0.40759214,3.5319074 0.329367386,3.70693414 0.260200235,3.88030968 C0.185217612,4.05881587 0.0982860398,4.23203586 0,4.3987851 L4.40693563,8.88178117 L4.44069578,8.7934422 L4.47445594,8.70510324 L4.5082161,8.61676427 L4.54197625,8.52842531 C4.6778403,8.21387255 4.81288093,7.90014538 4.92651268,7.58559262 C5.04014443,7.27103985 5.15212934,6.94492872 5.24270537,6.63037596 C5.3332814,6.3158232 5.42303401,5.98971206 5.50208219,5.66277533 C5.58113036,5.3358386 5.63712281,5.02211144 5.69393869,4.69517471 C5.74993114,4.34347004 5.80674702,3.99176538 5.84050717,3.62685115 C5.87426733,3.27514649 5.89649963,2.92344182 5.92284902,2.57091156 C5.94528524,2.22378713 5.94885868,1.87569547 5.93355346,1.52818153 C5.9220256,1.17647687 5.91049774,0.837156173 5.87591417,0.485451508 L1.105851,0 Z"></path>
                        </g>
                        <g opacity="0.45" transform="translate(24.879589, 7.628937)">
                            <path d="M3.3933075,0 L0,2.47679341 C0.107867819,2.62622661 0.204207779,2.77483422 0.30054774,2.92344182 C0.3968877,3.07204943 0.480876384,3.2322154 0.576392926,3.38495099 L0.829182395,3.8695769 C0.911524241,4.03469647 0.985631903,4.20476961 1.05726931,4.36493559 C1.12973013,4.53913672 1.18983968,4.7001283 1.24994923,4.87432943 C1.31005878,5.04853057 1.37016833,5.22190611 1.41463292,5.39610724 L1.55873115,5.91788506 C1.59496157,6.09208619 1.641073,6.2778457 1.66742239,6.45204683 L6.64745727,6.98208062 C6.57911354,6.65596949 6.50500588,6.33316075 6.42266403,6.01035201 C6.34032218,5.68754327 6.24233539,5.37711849 6.13364415,5.06669372 C6.02495291,4.75626895 5.91708509,4.44584417 5.796866,4.14780336 C5.6766469,3.84976256 5.54489995,3.55007055 5.41232957,3.25285535 C5.2797592,2.95564014 5.12413311,2.6691577 4.97921146,2.38350086 C4.83428981,2.09784402 4.66631244,1.82457115 4.49833508,1.55129827 C4.33035771,1.2780254 4.16155692,1.01713649 3.9820517,0.756247588 C3.80254647,0.495358682 3.58598742,0.247679341 3.3933075,0 Z"></path>
                        </g>
                        <g opacity="0.65" transform="translate(19.132128, 1.367603)">
                            <path d="M7.17115141,4.14284978 L3.61316023,6.54864178 L3.47564934,6.40994135 L3.33896188,6.27454331 C3.3266106,6.26215934 3.31425932,6.24894977 3.30190805,6.24894977 L3.74737744,4.6233477 L4.01992895,3.63263034 L4.11709233,3.27266969 L3.79595913,3.47576675 L2.89019881,3.9826838 L1.3825196,4.83057275 L0.988102158,4.61591732 C0.823418465,4.52757835 0.658734772,4.45162336 0.498168172,4.37566836 C0.337601571,4.29971336 0.164683693,4.22458396 0,4.16183853 L0.84235709,0 C1.14125799,0.113932497 1.42780762,0.227039396 1.72670852,0.35335586 C2.01325815,0.479672324 2.30310145,0.618372755 2.5863574,0.757073186 C2.86961335,0.895773617 3.14710537,1.04768361 3.42130372,1.21197758 C3.69550207,1.37627154 3.96970042,1.5422167 4.24472219,1.71724343 C4.32832099,1.76499343 4.40741984,1.82026047 4.48104329,1.88236299 C4.55597437,1.93272446 4.64572698,1.99629549 4.71736439,2.04748255 C4.78900179,2.09866962 4.88204808,2.16141505 4.95368549,2.21260211 C5.02532289,2.26378918 5.11836918,2.32653461 5.19083001,2.38928004 C5.36539472,2.52798047 5.53995943,2.65429694 5.71370073,2.79382297 C5.88744203,2.933349 6.05047888,3.07204943 6.22422018,3.22313382 C6.39796148,3.37421822 6.54782364,3.51374425 6.71003707,3.66565425 C6.85907582,3.83985538 7.02128925,3.99093978 7.17115141,4.14284978 Z"></path>
                        </g>
                        <g opacity="0.85" transform="translate(9.811854, -0.000000)">
                            <path d="M4.11050498,0.00949437474 L4.07098089,0.00949437474 C3.73063459,-0.00316479158 3.39028829,-0.00316479158 3.049942,0.00949437474 C2.70987017,0.0227039396 2.36897492,0.0367391023 2.0289031,0.063158232 C1.68883127,0.0895773617 1.34793603,0.129206056 1.0078642,0.181218718 C0.667792375,0.233231379 0.329367386,0.286895237 0,0.365327028 L2.49413453,4.85988147 C2.67693343,4.82025278 2.87373044,4.78144968 3.05652934,4.75503055 L3.61974757,4.67247077 C3.80336989,4.64605164 3.99934349,4.63284207 4.1961405,4.61963251 C4.39293751,4.60642294 4.57573641,4.60642294 4.77253342,4.60642294 C4.96933044,4.60642294 5.15212934,4.60642294 5.34892635,4.61880691 L5.92531928,4.65678441 C6.11459519,4.66983191 6.30276807,4.69576037 6.48853751,4.7343906 C6.67215982,4.75998414 6.86813342,4.79878723 7.05175574,4.83759033 L8.06456045,0.578331261 C7.74013357,0.495771481 7.42311746,0.421467679 7.09539692,0.35707105 C6.76767637,0.292674421 6.43666214,0.24066176 6.11305869,0.191951489 C5.78945523,0.143241219 5.44608973,0.0986589375 5.11836918,0.0730654056 C4.79064863,0.0474718737 4.4505768,0.0218783418 4.11050498,0.00949437474 Z"></path>
                        </g>
                        <g transform="translate(0.000000, 0.902791)">
                            <path d="M7.29631102,0 C6.95129868,0.104850921 6.61946104,0.236120972 6.2876234,0.367391023 C5.95578576,0.498661073 5.62394812,0.643140689 5.30528517,0.800004272 C4.98662223,0.956867854 4.65478458,1.11455703 4.33694506,1.29536295 C4.01910553,1.47616887 3.70044258,1.66192838 3.39495433,1.85842066 C3.30190805,1.92364288 3.20886176,1.97648114 3.11663889,2.04170337 L2.83832345,2.23819565 L2.56000801,2.43468792 C2.46696172,2.49991015 2.37391544,2.57834194 2.28169257,2.64438976 C2.0692506,2.80125335 1.86998333,2.97462889 1.67153948,3.13974845 C1.47309563,3.30486801 1.27382837,3.47989474 1.08773579,3.66317745 C0.90164322,3.84646017 0.716374065,4.02974288 0.53110491,4.22623516 C0.345835755,4.42272743 0.172094459,4.6233477 0,4.82149117 L6.07271118,7.50798642 C6.15505303,7.4031355 6.23163095,7.31149415 6.32467723,7.20664323 C6.40529938,7.10446696 6.49307836,7.00817874 6.58734772,6.91850959 C6.68039401,6.82686824 6.75944218,6.73522688 6.85248847,6.64358552 C6.94553475,6.55194417 7.03775762,6.46030281 7.13080391,6.38187102 L7.28972367,6.238217 C7.34242246,6.18620434 7.39594466,6.14657565 7.44864344,6.09456299 C7.50134222,6.04255032 7.55486442,6.00292163 7.6075632,5.96329293 C7.66370422,5.92354078 7.71682354,5.87966345 7.76648296,5.83202288 C7.92514948,5.71009592 8.0900577,5.59655925 8.26053404,5.49187659 C8.41945381,5.38702567 8.58990143,5.28217475 8.76446614,5.17732383 C8.93128095,5.07554517 9.10395111,4.98374366 9.28157294,4.90239976 C9.4536674,4.8107584 9.63975997,4.73150101 9.81267785,4.65472042 L7.29631102,0 Z"></path>
                        </g>
                    </g>
                    <g transform="translate(15.846635, 10.172912)" fill="#FF9A0D" id="Path">
                        <polygon points="9.52201113 0 9.35732744 0.367391023 8.90938779 1.38700431 6.82037515 6.13336608 5.46420494 9.23431143 3.76878632 5.43656154 0 3.70280615 3.2417985 2.43799031 3.2417985 2.43799031 8.08349907 0.574616071 9.13994496 0.165119561"></polygon>
                    </g>
                </g>
            </g>
        </g>
    </g>
</svg>